<?xml version="1.0" encoding="UTF-8" standalone="no"?>
<svg
   xmlns:dc="http://purl.org/dc/elements/1.1/"
   xmlns:cc="http://creativecommons.org/ns#"
   xmlns:rdf="http://www.w3.org/1999/02/22-rdf-syntax-ns#"
   xmlns:svg="http://www.w3.org/2000/svg"
   xmlns="http://www.w3.org/2000/svg"
   xmlns:sodipodi="http://sodipodi.sourceforge.net/DTD/sodipodi-0.dtd"
   xmlns:inkscape="http://www.inkscape.org/namespaces/inkscape"
   version="1.1"
   x="0px"
   y="0px"
   viewBox="0 0 65.334 100"
   enable-background="new 0 0 65.334 100"
   xml:space="preserve"
   id="svg3420"
   inkscape:version="0.91 r13725"
   sodipodi:docname="24190.svg"><metadata
     id="metadata3464"><rdf:RDF><cc:Work
         rdf:about=""><dc:format>image/svg+xml</dc:format><dc:type
           rdf:resource="http://purl.org/dc/dcmitype/StillImage" /></cc:Work></rdf:RDF></metadata><defs
     id="defs3462" /><sodipodi:namedview
     pagecolor="#ffffff"
     bordercolor="#666666"
     borderopacity="1"
     objecttolerance="10"
     gridtolerance="10"
     guidetolerance="10"
     inkscape:pageopacity="0"
     inkscape:pageshadow="2"
     inkscape:window-width="1920"
     inkscape:window-height="1131"
     id="namedview3460"
     showgrid="false"
     inkscape:zoom="4.825"
     inkscape:cx="15.738726"
     inkscape:cy="70.706075"
     inkscape:window-x="-4"
     inkscape:window-y="0"
     inkscape:window-maximized="1"
     inkscape:current-layer="g3422" /><g
     id="g3422"><g
       id="g3466"
       style="fill:#bc0300;fill-opacity:1"><path
         id="path3424"
         d="M10.499,79.566c0,0-0.022,0.911-0.022,0.922L3.14,94.907c-0.635,1.247-0.138,2.775,1.109,3.408   c1.248,0.635,2.774,0.137,3.409-1.11l5.488-10.794l-0.08-2.398L10.499,79.566z"
         style="fill:#bc0300;fill-opacity:1" /><path
         id="path3426"
         d="M23.374,60.493c-3.351-3.096-4.429-5.38-5.329-6.746c-0.009-0.014-0.018-0.025-0.026-0.037   c-0.167-0.251-0.329-0.474-0.499-0.659c-0.005-0.007-0.012-0.013-0.018-0.018c-0.173-0.188-0.353-0.343-0.557-0.462   c-0.004-0.003-0.009-0.004-0.013-0.006c-0.207-0.12-0.438-0.207-0.705-0.255c-1.859-0.338-1.693-0.773-1.994-1.808   c-0.102-0.352-0.222-0.76-0.348-1.193c-0.352-1.206-0.785-2.69-1.252-4.29c-0.283-0.974-0.578-1.984-0.875-3.004l0,0   c-1.58-5.411-3.192-10.94-3.192-10.94c-0.177-0.598-0.801-0.94-1.398-0.766c-0.115,0.034-0.214,0.097-0.31,0.163l-2.705-9.272   c-0.086-0.291-0.611-0.394-1.177-0.229l-1.862-6.386C1.011,14.23,0.684,14.013,0.386,14.1c-0.299,0.087-0.458,0.446-0.354,0.801   l8.337,28.573l0,0l2.646,9.072c0.267,0.913,1.846,0.971,2.092,2.142c0.755,3.593,2.131,9.234,2.155,11.324   c0.001,0.119,0.023,0.218,0.055,0.307c0.009,0.024,0.02,0.047,0.029,0.068c0.033,0.067,0.074,0.125,0.124,0.173   c0.012,0.011,0.021,0.025,0.032,0.035c0.065,0.053,0.144,0.093,0.231,0.12c0.021,0.007,0.046,0.011,0.069,0.016   c0.075,0.018,0.156,0.028,0.243,0.03c0.018,0.001,0.03,0.007,0.05,0.007c0.01,0,0.022-0.003,0.032-0.004   c0.139-0.003,0.29-0.021,0.452-0.053c0.024-0.006,0.05-0.012,0.075-0.017C19.335,66.099,24.821,61.828,23.374,60.493z"
         style="fill:#bc0300;fill-opacity:1" /><path
         id="path3428"
         d="M19.817,79.929l-3.415-7.877c1.24-0.81,1.859-2.316,2.082-3.611c-0.878,0.361-1.706,0.58-2.388,0.58   c-1.768,0-3.065-1.254-3.087-2.982c-0.016-1.378-0.878-5.282-1.509-8.134c-0.187-0.851-0.368-1.669-0.526-2.414   c-0.056-0.032-0.112-0.066-0.161-0.096c-0.594-0.353-1.589-0.943-1.96-2.218l-2.165-7.418c-0.316,0.744-0.492,1.563-0.492,2.422   v7.886v11.265c0,1.712,0.688,3.255,1.814,4.382c0.304,0.305,0.653,0.586,1.013,0.812l1.578,2.714l4.697,8.134l0.001,0.002   l0.473,14.176c0.047,1.397,1.22,2.496,2.617,2.448c1.399-0.046,2.496-1.219,2.45-2.618l-0.536-16.044   C20.286,80.81,20.107,80.325,19.817,79.929z"
         style="fill:#bc0300;fill-opacity:1" /><path
         id="path3430"
         d="M16.448,50.058c0.054,0.011,0.114,0.023,0.182,0.036c0.81,0.147,1.438,0.467,1.958,0.883v-2.796   c0-2.803-1.862-5.168-4.416-5.934l2.226,7.627C16.415,49.938,16.433,49.999,16.448,50.058z"
         style="fill:#bc0300;fill-opacity:1" /><path
         id="path3432"
         d="M10.729,30.445l2.854,9.781c3.302-0.445,5.85-3.267,5.85-6.69c0-3.733-3.026-6.759-6.759-6.759   c-1.555,0-2.981,0.53-4.123,1.412C9.577,28.536,10.411,29.366,10.729,30.445z"
         style="fill:#bc0300;fill-opacity:1" /><path
         id="path3434"
         d="M21.848,66.512c0.54,0.302,1.212,0.35,1.813,0.063c0.972-0.465,1.387-1.618,0.942-2.594   C23.889,64.852,22.913,65.731,21.848,66.512z"
         style="fill:#bc0300;fill-opacity:1" /></g><g
       id="g3474"
       style="fill:#b1b100;fill-opacity:1"><path
         id="path3436"
         d="M31.058,73.37c0,0-0.022,0.911-0.022,0.922l-7.337,14.419c-0.635,1.248-0.138,2.775,1.109,3.408   c1.248,0.635,2.774,0.138,3.409-1.109l5.488-10.795l-0.08-2.397L31.058,73.37z"
         style="fill:#b1b100;fill-opacity:1" /><path
         id="path3438"
         d="M43.933,54.297c-3.351-3.096-4.429-5.379-5.329-6.746c-0.009-0.013-0.018-0.025-0.026-0.038   c-0.167-0.25-0.329-0.473-0.499-0.659c-0.005-0.007-0.012-0.012-0.018-0.018c-0.173-0.187-0.353-0.342-0.557-0.462   c-0.004-0.002-0.009-0.003-0.013-0.005c-0.207-0.12-0.438-0.207-0.705-0.255c-1.859-0.338-1.693-0.773-1.994-1.808   c-0.102-0.352-0.222-0.76-0.348-1.192c-0.352-1.206-0.785-2.69-1.252-4.29c-0.283-0.974-0.578-1.984-0.875-3.004l0,0   c-1.58-5.411-3.192-10.94-3.192-10.94c-0.177-0.598-0.801-0.94-1.398-0.766c-0.115,0.034-0.214,0.097-0.31,0.163l-2.705-9.272   c-0.086-0.291-0.611-0.394-1.177-0.229L21.673,8.39c-0.104-0.355-0.431-0.573-0.729-0.486c-0.299,0.087-0.458,0.446-0.354,0.801   l8.337,28.573l0,0l2.646,9.072c0.267,0.913,1.845,0.971,2.092,2.142c0.755,3.593,2.131,9.234,2.155,11.325   c0.001,0.118,0.023,0.218,0.055,0.307c0.009,0.024,0.02,0.046,0.029,0.068c0.033,0.067,0.074,0.124,0.124,0.173   c0.012,0.011,0.021,0.025,0.032,0.035c0.065,0.053,0.144,0.092,0.231,0.12c0.021,0.006,0.046,0.011,0.069,0.015   c0.074,0.018,0.156,0.029,0.243,0.031c0.018,0.001,0.03,0.007,0.05,0.007c0.01,0,0.022-0.004,0.032-0.005   c0.139-0.002,0.29-0.02,0.452-0.053c0.024-0.006,0.05-0.011,0.075-0.017C39.894,59.903,45.38,55.633,43.933,54.297z"
         style="fill:#b1b100;fill-opacity:1" /><path
         id="path3440"
         d="M40.376,73.733l-3.415-7.878c1.24-0.81,1.858-2.315,2.082-3.61c-0.878,0.361-1.706,0.58-2.388,0.58   c-1.768,0-3.065-1.254-3.087-2.982c-0.016-1.379-0.878-5.283-1.509-8.135c-0.187-0.85-0.368-1.668-0.526-2.413   c-0.056-0.033-0.112-0.067-0.161-0.096c-0.594-0.353-1.589-0.944-1.96-2.218l-2.165-7.419c-0.316,0.744-0.492,1.563-0.492,2.422   v7.885v11.265c0,1.712,0.688,3.256,1.814,4.382c0.304,0.305,0.653,0.587,1.013,0.813l1.578,2.714l4.697,8.134l0.001,0.001   l0.473,14.176c0.047,1.398,1.219,2.496,2.617,2.449c1.399-0.047,2.496-1.219,2.45-2.618l-0.536-16.044   C40.845,74.613,40.666,74.13,40.376,73.733z"
         style="fill:#b1b100;fill-opacity:1" /><path
         id="path3442"
         d="M37.007,43.863c0.054,0.011,0.114,0.023,0.182,0.035c0.81,0.147,1.438,0.467,1.958,0.883v-2.796   c0-2.803-1.862-5.168-4.416-5.934l2.226,7.627C36.974,43.742,36.991,43.803,37.007,43.863z"
         style="fill:#b1b100;fill-opacity:1" /><path
         id="path3444"
         d="M31.287,24.25l2.854,9.782c3.303-0.445,5.851-3.268,5.851-6.691c0-3.732-3.026-6.759-6.759-6.759   c-1.555,0-2.981,0.53-4.123,1.411C30.136,22.34,30.97,23.17,31.287,24.25z"
         style="fill:#b1b100;fill-opacity:1" /><path
         id="path3446"
         d="M42.406,60.315c0.54,0.303,1.212,0.35,1.813,0.063c0.972-0.464,1.387-1.618,0.942-2.594   C44.446,58.655,43.472,59.536,42.406,60.315z"
         style="fill:#b1b100;fill-opacity:1" /></g><g
       id="g3482"
       style="fill:#007800;fill-opacity:1"><path
         id="path3448"
         d="M51.053,65.485c0,0-0.021,0.91-0.021,0.922l-7.338,14.419c-0.635,1.247-0.138,2.775,1.109,3.407   c1.248,0.635,2.775,0.138,3.41-1.109l5.488-10.794l-0.081-2.398L51.053,65.485z"
         style="fill:#007800;fill-opacity:1" /><path
         id="path3450"
         d="M63.929,46.412c-3.352-3.096-4.43-5.379-5.33-6.746c-0.009-0.013-0.018-0.025-0.026-0.037   c-0.166-0.251-0.329-0.473-0.499-0.659c-0.005-0.006-0.012-0.012-0.018-0.018c-0.172-0.187-0.353-0.342-0.557-0.462   c-0.004-0.002-0.009-0.003-0.013-0.005c-0.207-0.12-0.437-0.207-0.705-0.255c-1.859-0.338-1.693-0.773-1.993-1.808   c-0.103-0.352-0.223-0.76-0.348-1.192c-0.353-1.206-0.786-2.69-1.252-4.29c-0.284-0.974-0.579-1.984-0.876-3.004l0,0   c-1.58-5.411-3.192-10.94-3.192-10.94c-0.176-0.598-0.801-0.941-1.398-0.766c-0.115,0.034-0.213,0.097-0.309,0.163L44.707,7.12   c-0.085-0.291-0.611-0.394-1.177-0.229l-1.862-6.386c-0.104-0.355-0.43-0.572-0.729-0.485s-0.457,0.446-0.353,0.801l8.336,28.573   l0,0l2.647,9.071c0.266,0.913,1.845,0.972,2.091,2.142c0.755,3.593,2.131,9.234,2.155,11.324c0.001,0.119,0.024,0.218,0.055,0.307   c0.009,0.024,0.02,0.047,0.03,0.068c0.032,0.067,0.073,0.124,0.123,0.173c0.012,0.011,0.021,0.025,0.033,0.035   c0.064,0.053,0.143,0.093,0.23,0.12c0.022,0.007,0.046,0.011,0.069,0.016c0.075,0.018,0.156,0.028,0.243,0.03   c0.018,0.001,0.031,0.007,0.05,0.007c0.01,0,0.022-0.003,0.033-0.005c0.138-0.002,0.289-0.02,0.451-0.053   c0.024-0.005,0.05-0.011,0.075-0.017C59.889,52.018,65.375,47.747,63.929,46.412z"
         style="fill:#007800;fill-opacity:1" /><path
         id="path3452"
         d="M60.372,65.848l-3.416-7.877c1.241-0.811,1.859-2.316,2.082-3.611c-0.878,0.361-1.706,0.58-2.388,0.58   c-1.767,0-3.065-1.254-3.087-2.982c-0.016-1.378-0.878-5.283-1.509-8.134c-0.187-0.851-0.368-1.669-0.526-2.414   c-0.056-0.033-0.112-0.067-0.161-0.096c-0.594-0.353-1.588-0.944-1.96-2.218l-2.165-7.419c-0.315,0.744-0.492,1.563-0.492,2.422   v7.886V53.25c0,1.712,0.688,3.255,1.814,4.382c0.304,0.305,0.653,0.586,1.013,0.812l1.578,2.714l4.697,8.134l0.001,0.001   l0.474,14.176c0.046,1.398,1.219,2.496,2.616,2.449c1.399-0.046,2.496-1.219,2.45-2.618l-0.535-16.044   C60.841,66.729,60.661,66.244,60.372,65.848z"
         style="fill:#007800;fill-opacity:1" /><path
         id="path3454"
         d="M57.002,35.977c0.054,0.011,0.114,0.023,0.182,0.035c0.81,0.147,1.438,0.468,1.958,0.883v-2.796   c0-2.802-1.862-5.168-4.416-5.933l2.226,7.627C56.969,35.856,56.986,35.918,57.002,35.977z"
         style="fill:#007800;fill-opacity:1" /><path
         id="path3456"
         d="M51.283,16.364l2.854,9.781c3.302-0.445,5.85-3.267,5.85-6.691c0-3.732-3.026-6.759-6.759-6.759   c-1.555,0-2.981,0.53-4.123,1.412C50.131,14.454,50.965,15.285,51.283,16.364z"
         style="fill:#007800;fill-opacity:1" /><path
         id="path3458"
         d="M62.401,52.43c0.54,0.303,1.212,0.351,1.813,0.063c0.971-0.465,1.386-1.619,0.941-2.594   C64.442,50.77,63.468,51.65,62.401,52.43z"
         style="fill:#007800;fill-opacity:1" /></g></g></svg>