<?xml version="1.0" encoding="UTF-8" standalone="no"?>
<svg
   xmlns:dc="http://purl.org/dc/elements/1.1/"
   xmlns:cc="http://creativecommons.org/ns#"
   xmlns:rdf="http://www.w3.org/1999/02/22-rdf-syntax-ns#"
   xmlns:svg="http://www.w3.org/2000/svg"
   xmlns="http://www.w3.org/2000/svg"
   xmlns:sodipodi="http://sodipodi.sourceforge.net/DTD/sodipodi-0.dtd"
   xmlns:inkscape="http://www.inkscape.org/namespaces/inkscape"
   version="1.1"
   x="0px"
   y="0px"
   viewBox="0 0 70.988526 105.55869"
   enable-background="new 0 0 65.334 100"
   xml:space="preserve"
   id="svg3420"
   inkscape:version="0.91 r13725"
   sodipodi:docname="24190new.svg"
   width="70.988525"
   height="105.55869"><metadata
     id="metadata3464"><rdf:RDF><cc:Work
         rdf:about=""><dc:format>image/svg+xml</dc:format><dc:type
           rdf:resource="http://purl.org/dc/dcmitype/StillImage" /><dc:title></dc:title></cc:Work></rdf:RDF></metadata><defs
     id="defs3462" /><sodipodi:namedview
     pagecolor="#ffffff"
     bordercolor="#666666"
     borderopacity="1"
     objecttolerance="10"
     gridtolerance="10"
     guidetolerance="10"
     inkscape:pageopacity="0"
     inkscape:pageshadow="2"
     inkscape:window-width="1920"
     inkscape:window-height="1131"
     id="namedview3460"
     showgrid="false"
     inkscape:zoom="6.8235804"
     inkscape:cx="30.078014"
     inkscape:cy="53.139918"
     inkscape:window-x="-4"
     inkscape:window-y="0"
     inkscape:window-maximized="1"
     inkscape:current-layer="g3422"
     fit-margin-top="0"
     fit-margin-left="0"
     fit-margin-right="0"
     fit-margin-bottom="0" /><g
     id="g3422"
     transform="translate(5.6126647,5.5571774)"><g
       id="g4874"
       style="fill:#bc0300;fill-opacity:1"><g
         style="fill:#bc0300;fill-opacity:1"
         id="g3466"><path
           style="fill:#bc0300;fill-opacity:1"
           d="m 10.499,79.566 c 0,0 -0.022,0.911 -0.022,0.922 L 3.14,94.907 c -0.635,1.247 -0.138,2.775 1.109,3.408 1.248,0.635 2.774,0.137 3.409,-1.11 l 5.488,-10.794 -0.08,-2.398 -2.567,-4.447 z"
           id="path3424"
           inkscape:connector-curvature="0" /><path
           style="fill:#bc0300;fill-opacity:1"
           d="m 19.817,79.929 -3.415,-7.877 c 1.24,-0.81 1.859,-2.316 2.082,-3.611 -0.878,0.361 -1.706,0.58 -2.388,0.58 -1.768,0 -3.065,-1.254 -3.087,-2.982 C 12.993,64.661 12.131,60.757 11.5,57.905 11.313,57.054 11.132,56.236 10.974,55.491 10.918,55.459 10.862,55.425 10.813,55.395 10.219,55.042 9.224,54.452 8.853,53.177 L 6.688,45.759 c -0.316,0.744 -0.492,1.563 -0.492,2.422 l 0,7.886 0,11.265 c 0,1.712 0.688,3.255 1.814,4.382 0.304,0.305 0.653,0.586 1.013,0.812 l 1.578,2.714 4.697,8.134 10e-4,0.002 0.473,14.176 c 0.047,1.397 1.22,2.496 2.617,2.448 1.399,-0.046 2.496,-1.219 2.45,-2.618 L 20.303,81.338 C 20.286,80.81 20.107,80.325 19.817,79.929 Z"
           id="path3428"
           inkscape:connector-curvature="0" /><path
           sodipodi:nodetypes="cccsccc"
           inkscape:connector-curvature="0"
           style="fill:#bc0300;fill-opacity:1"
           d="m 15.567171,50.21344 c 0.054,0.011 0.114,0.023 0.182,0.036 0.81,0.147 1.438,0.467 1.958,0.883 l 0,-2.796 c 0,-2.803 -2.069254,-5.219813 -4.623254,-5.985813 l 2.433254,7.678813 c 0.017,0.064 0.035,0.125 0.05,0.184 z"
           id="path3430" /><path
           sodipodi:nodetypes="czcc"
           inkscape:connector-curvature="0"
           style="fill:#bc0300;fill-opacity:1"
           d="m 12.443104,40.38144 c 3.302,-0.445 6.55809,-4.772214 5.16017,-8.708753 -1.397919,-3.936538 -4.912581,-4.826251 -9.0930407,-3.229381 1.2610413,4.251644 2.6272857,7.463739 3.9328707,11.938134 z"
           id="path3432" /><path
           style="fill:#bc0300;fill-opacity:1"
           d="m 21.848,66.512 c 0.54,0.302 1.212,0.35 1.813,0.063 0.972,-0.465 1.387,-1.618 0.942,-2.594 -0.714,0.871 -1.69,1.75 -2.755,2.531 z"
           id="path3434"
           inkscape:connector-curvature="0" /></g><path
         sodipodi:nodetypes="cccccccccccccccccccccccccscccc"
         style="fill:#bc0300;fill-opacity:1"
         d="m 22.990243,61.006536 c -3.351,-3.096 -4.429,-5.379 -5.329,-6.746 -0.009,-0.013 -0.018,-0.025 -0.026,-0.038 -0.167,-0.25 -0.329,-0.473 -0.499,-0.659 -0.005,-0.007 -0.012,-0.012 -0.018,-0.018 -0.173,-0.187 -0.353,-0.342 -0.557,-0.462 -0.004,-0.002 -0.009,-0.003 -0.013,-0.005 -0.207,-0.12 -0.438,-0.207 -0.705,-0.255 -1.859,-0.338 -1.693,-0.773 -1.994,-1.808 -0.102,-0.352 -0.222,-0.76 -0.348,-1.192 -0.352,-1.206 -0.785,-2.69 -1.252,-4.29 -0.283,-0.974 -0.578,-1.984 -0.875,-3.004 C 7.1018849,28.757167 7.0994639,28.763144 6.0431279,25.402559 c -0.506897,-0.290703 -3.616657,-1.347293 -3.046992,1.543525 1.701469,6.051066 3.442377,11.836963 4.988106,17.041452 l 2.6460011,9.072 c 0.267,0.913 1.845,0.971 2.092,2.142 0.755,3.593 2.131,9.234 2.155,11.325 10e-4,0.118 0.023,0.218 0.055,0.307 0.009,0.024 0.02,0.046 0.029,0.068 0.033,0.067 0.074,0.124 0.124,0.173 0.012,0.011 0.021,0.025 0.032,0.035 0.065,0.053 0.144,0.092 0.231,0.12 0.021,0.006 0.046,0.011 0.069,0.015 0.074,0.018 0.156,0.029 0.243,0.031 0.018,10e-4 0.03,0.007 0.05,0.007 0.01,0 0.022,-0.004 0.032,-0.005 0.139,-0.002 0.29,-0.02 0.452,-0.053 0.024,-0.006 0.05,-0.011 0.075,-0.017 2.682,-0.595 8.168,-4.865 6.721,-6.201 z"
         id="path3438-1"
         inkscape:connector-curvature="0" /><g
         transform="matrix(1.0586974,-0.30363723,0.30363723,1.0586974,-9.3049891,9.5758228)"
         id="g4812"
         style="fill:#bc0300;fill-opacity:1"><path
           sodipodi:nodetypes="sccccccsccsccscsccscs"
           style="fill:#bc0300;fill-opacity:1"
           inkscape:connector-curvature="0"
           d="m 12.457948,2.5441278 c -0.3,0 -0.6,0.2 -0.6,0.5 l -1,12.0000002 c 0,0.5 -0.4,0.8 -0.7,0.8 l 0,0 c -0.3999999,0 -0.6999999,-0.4 -0.6999999,-0.8 l -1,-12.0000002 c 0,-0.3 -0.3,-0.5 -0.6,-0.5 -0.3,0 -0.6,0.2 -0.6,0.5 l -1,12.0000002 c 0,0.5 -0.4,0.8 -0.7,0.8 -0.4,0 -0.7,-0.4 -0.7,-0.8 l -1,-12.0000002 c 0,-0.3 -0.3,-0.5 -0.6,-0.5 l -0.5,0 0,12.1000002 c 0,2.5 1.8,4.7 4.2,5.2 0.7860205,0.193694 0.744557,0.209599 1.4,-0.1 2.4999999,-0.3 4.4999999,-2.4 4.4999999,-5 l 0,-12.2000002 z"
           id="path4814" /></g></g><g
       style="fill:#b1b100;fill-opacity:1"
       id="g4885"
       transform="translate(20.663638,-6.1551264)"><g
         id="g4887"
         style="fill:#b1b100;fill-opacity:1"><path
           id="path4889"
           d="m 10.499,79.566 c 0,0 -0.022,0.911 -0.022,0.922 L 3.14,94.907 c -0.635,1.247 -0.138,2.775 1.109,3.408 1.248,0.635 2.774,0.137 3.409,-1.11 l 5.488,-10.794 -0.08,-2.398 -2.567,-4.447 z"
           style="fill:#b1b100;fill-opacity:1"
           inkscape:connector-curvature="0" /><path
           id="path4891"
           d="m 19.817,79.929 -3.415,-7.877 c 1.24,-0.81 1.859,-2.316 2.082,-3.611 -0.878,0.361 -1.706,0.58 -2.388,0.58 -1.768,0 -3.065,-1.254 -3.087,-2.982 C 12.993,64.661 12.131,60.757 11.5,57.905 11.313,57.054 11.132,56.236 10.974,55.491 10.918,55.459 10.862,55.425 10.813,55.395 10.219,55.042 9.224,54.452 8.853,53.177 L 6.688,45.759 c -0.316,0.744 -0.492,1.563 -0.492,2.422 l 0,7.886 0,11.265 c 0,1.712 0.688,3.255 1.814,4.382 0.304,0.305 0.653,0.586 1.013,0.812 l 1.578,2.714 4.697,8.134 10e-4,0.002 0.473,14.176 c 0.047,1.397 1.22,2.496 2.617,2.448 1.399,-0.046 2.496,-1.219 2.45,-2.618 L 20.303,81.338 C 20.286,80.81 20.107,80.325 19.817,79.929 Z"
           style="fill:#b1b100;fill-opacity:1"
           inkscape:connector-curvature="0" /><path
           id="path4893"
           d="m 15.567171,50.21344 c 0.054,0.011 0.114,0.023 0.182,0.036 0.81,0.147 1.438,0.467 1.958,0.883 l 0,-2.796 c 0,-2.803 -2.069254,-5.219813 -4.623254,-5.985813 l 2.433254,7.678813 c 0.017,0.064 0.035,0.125 0.05,0.184 z"
           style="fill:#b1b100;fill-opacity:1"
           inkscape:connector-curvature="0"
           sodipodi:nodetypes="cccsccc" /><path
           id="path4895"
           d="m 12.443104,40.38144 c 3.302,-0.445 6.55809,-4.772214 5.16017,-8.708753 -1.397919,-3.936538 -4.912581,-4.826251 -9.0930407,-3.229381 1.2610413,4.251644 2.6272857,7.463739 3.9328707,11.938134 z"
           style="fill:#b1b100;fill-opacity:1"
           inkscape:connector-curvature="0"
           sodipodi:nodetypes="czcc" /><path
           id="path4897"
           d="m 21.848,66.512 c 0.54,0.302 1.212,0.35 1.813,0.063 0.972,-0.465 1.387,-1.618 0.942,-2.594 -0.714,0.871 -1.69,1.75 -2.755,2.531 z"
           style="fill:#b1b100;fill-opacity:1"
           inkscape:connector-curvature="0" /></g><path
         inkscape:connector-curvature="0"
         id="path4899"
         d="m 22.990243,61.006536 c -3.351,-3.096 -4.429,-5.379 -5.329,-6.746 -0.009,-0.013 -0.018,-0.025 -0.026,-0.038 -0.167,-0.25 -0.329,-0.473 -0.499,-0.659 -0.005,-0.007 -0.012,-0.012 -0.018,-0.018 -0.173,-0.187 -0.353,-0.342 -0.557,-0.462 -0.004,-0.002 -0.009,-0.003 -0.013,-0.005 -0.207,-0.12 -0.438,-0.207 -0.705,-0.255 -1.859,-0.338 -1.693,-0.773 -1.994,-1.808 -0.102,-0.352 -0.222,-0.76 -0.348,-1.192 -0.352,-1.206 -0.785,-2.69 -1.252,-4.29 -0.283,-0.974 -0.578,-1.984 -0.875,-3.004 C 7.1018849,28.757167 7.0994639,28.763144 6.0431279,25.402559 c -0.506897,-0.290703 -3.616657,-1.347293 -3.046992,1.543525 1.701469,6.051066 3.442377,11.836963 4.988106,17.041452 l 2.6460011,9.072 c 0.267,0.913 1.845,0.971 2.092,2.142 0.755,3.593 2.131,9.234 2.155,11.325 10e-4,0.118 0.023,0.218 0.055,0.307 0.009,0.024 0.02,0.046 0.029,0.068 0.033,0.067 0.074,0.124 0.124,0.173 0.012,0.011 0.021,0.025 0.032,0.035 0.065,0.053 0.144,0.092 0.231,0.12 0.021,0.006 0.046,0.011 0.069,0.015 0.074,0.018 0.156,0.029 0.243,0.031 0.018,10e-4 0.03,0.007 0.05,0.007 0.01,0 0.022,-0.004 0.032,-0.005 0.139,-0.002 0.29,-0.02 0.452,-0.053 0.024,-0.006 0.05,-0.011 0.075,-0.017 2.682,-0.595 8.168,-4.865 6.721,-6.201 z"
         style="fill:#b1b100;fill-opacity:1"
         sodipodi:nodetypes="cccccccccccccccccccccccccscccc" /><g
         style="fill:#b1b100;fill-opacity:1"
         id="g4901"
         transform="matrix(1.0586974,-0.30363723,0.30363723,1.0586974,-9.3049891,9.5758228)"><path
           id="path4903"
           d="m 12.457948,2.5441278 c -0.3,0 -0.6,0.2 -0.6,0.5 l -1,12.0000002 c 0,0.5 -0.4,0.8 -0.7,0.8 l 0,0 c -0.3999999,0 -0.6999999,-0.4 -0.6999999,-0.8 l -1,-12.0000002 c 0,-0.3 -0.3,-0.5 -0.6,-0.5 -0.3,0 -0.6,0.2 -0.6,0.5 l -1,12.0000002 c 0,0.5 -0.4,0.8 -0.7,0.8 -0.4,0 -0.7,-0.4 -0.7,-0.8 l -1,-12.0000002 c 0,-0.3 -0.3,-0.5 -0.6,-0.5 l -0.5,0 0,12.1000002 c 0,2.5 1.8,4.7 4.2,5.2 0.7860205,0.193694 0.744557,0.209599 1.4,-0.1 2.4999999,-0.3 4.4999999,-2.4 4.4999999,-5 l 0,-12.2000002 z"
           inkscape:connector-curvature="0"
           style="fill:#b1b100;fill-opacity:1"
           sodipodi:nodetypes="sccccccsccsccscsccscs" /></g></g><g
       transform="translate(40.594524,-13.92231)"
       id="g4905"
       style="fill:#007800;fill-opacity:1"><g
         style="fill:#007800;fill-opacity:1"
         id="g4907"><path
           inkscape:connector-curvature="0"
           style="fill:#007800;fill-opacity:1"
           d="m 10.499,79.566 c 0,0 -0.022,0.911 -0.022,0.922 L 3.14,94.907 c -0.635,1.247 -0.138,2.775 1.109,3.408 1.248,0.635 2.774,0.137 3.409,-1.11 l 5.488,-10.794 -0.08,-2.398 -2.567,-4.447 z"
           id="path4909" /><path
           inkscape:connector-curvature="0"
           style="fill:#007800;fill-opacity:1"
           d="m 19.817,79.929 -3.415,-7.877 c 1.24,-0.81 1.859,-2.316 2.082,-3.611 -0.878,0.361 -1.706,0.58 -2.388,0.58 -1.768,0 -3.065,-1.254 -3.087,-2.982 C 12.993,64.661 12.131,60.757 11.5,57.905 11.313,57.054 11.132,56.236 10.974,55.491 10.918,55.459 10.862,55.425 10.813,55.395 10.219,55.042 9.224,54.452 8.853,53.177 L 6.688,45.759 c -0.316,0.744 -0.492,1.563 -0.492,2.422 l 0,7.886 0,11.265 c 0,1.712 0.688,3.255 1.814,4.382 0.304,0.305 0.653,0.586 1.013,0.812 l 1.578,2.714 4.697,8.134 10e-4,0.002 0.473,14.176 c 0.047,1.397 1.22,2.496 2.617,2.448 1.399,-0.046 2.496,-1.219 2.45,-2.618 L 20.303,81.338 C 20.286,80.81 20.107,80.325 19.817,79.929 Z"
           id="path4911" /><path
           sodipodi:nodetypes="cccsccc"
           inkscape:connector-curvature="0"
           style="fill:#007800;fill-opacity:1"
           d="m 15.567171,50.21344 c 0.054,0.011 0.114,0.023 0.182,0.036 0.81,0.147 1.438,0.467 1.958,0.883 l 0,-2.796 c 0,-2.803 -2.069254,-5.219813 -4.623254,-5.985813 l 2.433254,7.678813 c 0.017,0.064 0.035,0.125 0.05,0.184 z"
           id="path4913" /><path
           sodipodi:nodetypes="czcc"
           inkscape:connector-curvature="0"
           style="fill:#007800;fill-opacity:1"
           d="m 12.443104,40.38144 c 3.302,-0.445 6.55809,-4.772214 5.16017,-8.708753 -1.397919,-3.936538 -4.912581,-4.826251 -9.0930407,-3.229381 1.2610413,4.251644 2.6272857,7.463739 3.9328707,11.938134 z"
           id="path4915" /><path
           inkscape:connector-curvature="0"
           style="fill:#007800;fill-opacity:1"
           d="m 21.848,66.512 c 0.54,0.302 1.212,0.35 1.813,0.063 0.972,-0.465 1.387,-1.618 0.942,-2.594 -0.714,0.871 -1.69,1.75 -2.755,2.531 z"
           id="path4917" /></g><path
         sodipodi:nodetypes="cccccccccccccccccccccccccscccc"
         style="fill:#007800;fill-opacity:1"
         d="m 22.990243,61.006536 c -3.351,-3.096 -4.429,-5.379 -5.329,-6.746 -0.009,-0.013 -0.018,-0.025 -0.026,-0.038 -0.167,-0.25 -0.329,-0.473 -0.499,-0.659 -0.005,-0.007 -0.012,-0.012 -0.018,-0.018 -0.173,-0.187 -0.353,-0.342 -0.557,-0.462 -0.004,-0.002 -0.009,-0.003 -0.013,-0.005 -0.207,-0.12 -0.438,-0.207 -0.705,-0.255 -1.859,-0.338 -1.693,-0.773 -1.994,-1.808 -0.102,-0.352 -0.222,-0.76 -0.348,-1.192 -0.352,-1.206 -0.785,-2.69 -1.252,-4.29 -0.283,-0.974 -0.578,-1.984 -0.875,-3.004 C 7.1018849,28.757167 7.0994639,28.763144 6.0431279,25.402559 c -0.506897,-0.290703 -3.616657,-1.347293 -3.046992,1.543525 1.701469,6.051066 3.442377,11.836963 4.988106,17.041452 l 2.6460011,9.072 c 0.267,0.913 1.845,0.971 2.092,2.142 0.755,3.593 2.131,9.234 2.155,11.325 10e-4,0.118 0.023,0.218 0.055,0.307 0.009,0.024 0.02,0.046 0.029,0.068 0.033,0.067 0.074,0.124 0.124,0.173 0.012,0.011 0.021,0.025 0.032,0.035 0.065,0.053 0.144,0.092 0.231,0.12 0.021,0.006 0.046,0.011 0.069,0.015 0.074,0.018 0.156,0.029 0.243,0.031 0.018,10e-4 0.03,0.007 0.05,0.007 0.01,0 0.022,-0.004 0.032,-0.005 0.139,-0.002 0.29,-0.02 0.452,-0.053 0.024,-0.006 0.05,-0.011 0.075,-0.017 2.682,-0.595 8.168,-4.865 6.721,-6.201 z"
         id="path4919"
         inkscape:connector-curvature="0" /><g
         transform="matrix(1.0586974,-0.30363723,0.30363723,1.0586974,-9.3049891,9.5758228)"
         id="g4921"
         style="fill:#007800;fill-opacity:1"><path
           sodipodi:nodetypes="sccccccsccsccscsccscs"
           style="fill:#007800;fill-opacity:1"
           inkscape:connector-curvature="0"
           d="m 12.457948,2.5441278 c -0.3,0 -0.6,0.2 -0.6,0.5 l -1,12.0000002 c 0,0.5 -0.4,0.8 -0.7,0.8 l 0,0 c -0.3999999,0 -0.6999999,-0.4 -0.6999999,-0.8 l -1,-12.0000002 c 0,-0.3 -0.3,-0.5 -0.6,-0.5 -0.3,0 -0.6,0.2 -0.6,0.5 l -1,12.0000002 c 0,0.5 -0.4,0.8 -0.7,0.8 -0.4,0 -0.7,-0.4 -0.7,-0.8 l -1,-12.0000002 c 0,-0.3 -0.3,-0.5 -0.6,-0.5 l -0.5,0 0,12.1000002 c 0,2.5 1.8,4.7 4.2,5.2 0.7860205,0.193694 0.744557,0.209599 1.4,-0.1 2.4999999,-0.3 4.4999999,-2.4 4.4999999,-5 l 0,-12.2000002 z"
           id="path4923" /></g></g></g></svg>